<svg id="visual" viewBox="0 0 900 300" width="900" height="300" xmlns="http://www.w3.org/2000/svg" xmlns:xlink="http://www.w3.org/1999/xlink" version="1.1"><path d="M0 123L21.5 121C43 119 86 115 128.8 113.3C171.7 111.7 214.3 112.3 257.2 110.5C300 108.7 343 104.3 385.8 97.8C428.7 91.3 471.3 82.7 514.2 83C557 83.3 600 92.7 642.8 97.8C685.7 103 728.3 104 771.2 95.2C814 86.3 857 67.7 878.5 58.3L900 49L900 301L878.5 301C857 301 814 301 771.2 301C728.3 301 685.7 301 642.8 301C600 301 557 301 514.2 301C471.3 301 428.7 301 385.8 301C343 301 300 301 257.2 301C214.3 301 171.7 301 128.8 301C86 301 43 301 21.5 301L0 301Z" fill="#fa7268"></path><path d="M0 112L21.5 118.3C43 124.7 86 137.3 128.8 143.8C171.7 150.3 214.3 150.7 257.2 147.5C300 144.3 343 137.7 385.8 137.7C428.7 137.7 471.3 144.3 514.2 138.7C557 133 600 115 642.8 115.7C685.7 116.3 728.3 135.7 771.2 141.2C814 146.7 857 138.3 878.5 134.2L900 130L900 301L878.5 301C857 301 814 301 771.2 301C728.3 301 685.7 301 642.8 301C600 301 557 301 514.2 301C471.3 301 428.7 301 385.8 301C343 301 300 301 257.2 301C214.3 301 171.7 301 128.8 301C86 301 43 301 21.5 301L0 301Z" fill="#f36567"></path><path d="M0 144L21.5 146.3C43 148.7 86 153.3 128.8 153C171.7 152.7 214.3 147.3 257.2 146.5C300 145.7 343 149.3 385.8 145.2C428.7 141 471.3 129 514.2 126.7C557 124.3 600 131.7 642.8 133C685.7 134.3 728.3 129.7 771.2 125.8C814 122 857 119 878.5 117.5L900 116L900 301L878.5 301C857 301 814 301 771.2 301C728.3 301 685.7 301 642.8 301C600 301 557 301 514.2 301C471.3 301 428.7 301 385.8 301C343 301 300 301 257.2 301C214.3 301 171.7 301 128.8 301C86 301 43 301 21.5 301L0 301Z" fill="#eb5967"></path><path d="M0 209L21.5 200.2C43 191.3 86 173.7 128.8 164.8C171.7 156 214.3 156 257.2 161.3C300 166.7 343 177.3 385.8 175.3C428.7 173.3 471.3 158.7 514.2 160.3C557 162 600 180 642.8 180.8C685.7 181.7 728.3 165.3 771.2 158.7C814 152 857 155 878.5 156.5L900 158L900 301L878.5 301C857 301 814 301 771.2 301C728.3 301 685.7 301 642.8 301C600 301 557 301 514.2 301C471.3 301 428.7 301 385.8 301C343 301 300 301 257.2 301C214.3 301 171.7 301 128.8 301C86 301 43 301 21.5 301L0 301Z" fill="#e34c67"></path><path d="M0 185L21.5 188C43 191 86 197 128.8 197.5C171.7 198 214.3 193 257.2 197.8C300 202.7 343 217.3 385.8 221.2C428.7 225 471.3 218 514.2 210.7C557 203.3 600 195.7 642.8 194.3C685.7 193 728.3 198 771.2 201.8C814 205.7 857 208.3 878.5 209.7L900 211L900 301L878.5 301C857 301 814 301 771.2 301C728.3 301 685.7 301 642.8 301C600 301 557 301 514.2 301C471.3 301 428.7 301 385.8 301C343 301 300 301 257.2 301C214.3 301 171.7 301 128.8 301C86 301 43 301 21.5 301L0 301Z" fill="#da3f67"></path><path d="M0 219L21.5 218C43 217 86 215 128.8 220.5C171.7 226 214.3 239 257.2 242.3C300 245.7 343 239.3 385.8 232.5C428.7 225.7 471.3 218.3 514.2 221.3C557 224.3 600 237.7 642.8 243.5C685.7 249.3 728.3 247.7 771.2 242.5C814 237.3 857 228.7 878.5 224.3L900 220L900 301L878.5 301C857 301 814 301 771.2 301C728.3 301 685.7 301 642.8 301C600 301 557 301 514.2 301C471.3 301 428.7 301 385.8 301C343 301 300 301 257.2 301C214.3 301 171.7 301 128.8 301C86 301 43 301 21.5 301L0 301Z" fill="#d03267"></path><path d="M0 277L21.5 274.5C43 272 86 267 128.8 262.5C171.7 258 214.3 254 257.2 251.7C300 249.3 343 248.7 385.8 252C428.7 255.3 471.3 262.7 514.2 267.2C557 271.7 600 273.3 642.8 269.2C685.7 265 728.3 255 771.2 250.2C814 245.3 857 245.7 878.5 245.8L900 246L900 301L878.5 301C857 301 814 301 771.2 301C728.3 301 685.7 301 642.8 301C600 301 557 301 514.2 301C471.3 301 428.7 301 385.8 301C343 301 300 301 257.2 301C214.3 301 171.7 301 128.8 301C86 301 43 301 21.5 301L0 301Z" fill="#c62368"></path></svg>